:SAMPLES-PER-SECOND 30
:FULLY-SPECIFIED
:DEGREES
871
root  -65.1776 40.3964 13.4845 -175.936 -50.8508 174.467
RightUpLeg  -14.2151 -15.4761 -10.4438
RightLeg  16.2156 1.97253 0.377889
RightFoot  -4.64613 -0.557912 8.98309
RightToes  -4.65661e-009 0 -3.6325e-017
Spine  8.17556 -0.913944 -4.30902
Spine1  4.0743 -0.611494 -2.91017
HEad  -24.051 -12.4896 6.42278
LeftShoulder1  -0.282698 4.25553 -31.3986
LeftArm  -3.79227 11.4022 -38.5763
LeftForeArm  30.0498 -12.6979 -6.76107
LeftHand  -0.0417055 7.8904 0.00566387
RightShoulder  -0.988497 -6.19085 30.2105
RightArm  13.576 -10.2092 44.9772
RightForeArm  20.3245 9.99459 6.35757
RightHand  0.0302682 4.34649 0.106292
LeftUpLeg  -5.0597 6.5321 -2.02186
LeftLeg  9.41695 7.7615 -0.701875
LeftFoot  -4.52887 -0.146019 2.91704
LeftToes  9.86798e-010 -1.28139e-010 1.4132e-011
872
root  -64.729 40.3756 13.8031 -176.011 -49.3685 174.602
RightUpLeg  -12.5151 -14.6943 -11.9365
RightLeg  20.28 0.282138 -0.0927604
RightFoot  -5.23671 -0.461558 7.97177
RightToes  -4.65661e-009 0 -3.6325e-017
Spine  7.60407 -1.09528 -5.50042
Spine1  4.41291 -1.23817 -1.34981
HEad  -23.2102 -11.3235 6.17687
LeftShoulder1  -0.382119 4.50328 -32.0904
LeftArm  -4.27765 11.3556 -37.9001
LeftForeArm  32.9366 -11.7967 -6.9751
LeftHand  -0.063901 7.44751 -1.15793
RightShoulder  -0.920697 -6.04989 29.5782
RightArm  12.5183 -12.0148 44.2954
RightForeArm  16.3192 10.5585 5.91679
RightHand  -0.0425949 5.2757 -0.774105
LeftUpLeg  -5.99318 6.65628 -1.87905
LeftLeg  9.58283 9.13243 -0.720026
LeftFoot  -3.9523 -0.138495 2.51108
LeftToes  9.86798e-010 -1.28139e-010 1.4132e-011
873
root  -64.3118 40.3467 14.1267 -176.262 -46.8898 174.418
RightUpLeg  -10.2229 -13.1397 -13.7759
RightLeg  23.1174 -1.33034 -0.833897
RightFoot  -5.8764 -0.362681 6.7492
RightToes  -4.65661e-009 0 -3.6325e-017
Spine  7.45417 -0.955796 -4.56547
Spine1  4.44155 -0.774372 -2.8786
HEad  -22.1546 -12.3539 6.02866
LeftShoulder1  -0.327873 4.3722 -31.5806
LeftArm  -5.02617 11.5019 -38.1729
LeftForeArm  33.9099 -10.9924 -7.08297
LeftHand  -0.08409 8.21475 -1.53793
RightShoulder  -1.0245 -6.29901 30.1064
RightArm  11.5489 -13.2527 43.4104
RightForeArm  16.0881 11.1192 5.40652
RightHand  -0.0065381 3.74347 -0.347267
LeftUpLeg  -6.3578 6.70998 -1.98171
LeftLeg  9.66919 11.5446 -0.462696
LeftFoot  -3.26841 -0.167613 2.65108
LeftToes  9.86798e-010 -1.28139e-010 1.4132e-011
874
root  -63.882 40.3458 14.4161 -176.995 -44.0117 174.713
RightUpLeg  -7.58179 -11.7979 -15.0266
RightLeg  24.3601 -2.22131 -1.30948
RightFoot  -6.22719 -0.267048 5.03205
RightToes  -4.65661e-009 0 -3.6325e-017
Spine  7.56763 -0.745078 -3.75496
Spine1  4.15641 -0.460368 -3.46739
HEad  -21.1193 -11.1575 5.51703
LeftShoulder1  -0.442514 4.65887 -32.1838
LeftArm  -4.49684 11.5044 -37.5772
LeftForeArm  32.3007 -10.62 -7.36467
LeftHand  -0.0579094 7.9446 -0.531372
RightShoulder  -0.999751 -6.22518 30.1803
RightArm  10.8128 -13.0377 42.9392
RightForeArm  16.4219 10.0908 5.35541
RightHand  -0.0325396 3.61342 -0.675406
LeftUpLeg  -6.47633 6.93852 -1.63377
LeftLeg  9.65573 14.063 -0.0783284
LeftFoot  -2.52935 -0.199403 2.79072
LeftToes  9.86798e-010 -1.28139e-010 1.4132e-011
875
root  -63.474 40.3479 14.6832 -177.576 -40.4795 174.568
RightUpLeg  -4.56665 -11.0361 -16.7596
RightLeg  23.7625 -1.00618 -0.704373
RightFoot  -6.49363 -0.219356 4.14104
RightToes  -4.65661e-009 0 -3.6325e-017
Spine  7.61584 -0.285395 -2.08604
Spine1  3.97992 0.431728 -5.23174
HEad  -20.0348 -10.7053 4.88119
LeftShoulder1  -0.393034 4.52917 -32.1804
LeftArm  -4.61452 11.9153 -37.7173
LeftForeArm  30.5346 -11.0436 -7.15217
LeftHand  -0.0295658 7.19454 0.536614
RightShoulder  -0.882974 -5.96382 29.2618
RightArm  9.64529 -12.9616 43.7196
RightForeArm  18.3548 9.48986 5.08067
RightHand  0.0344922 3.60001 0.19649
LeftUpLeg  -6.0186 7.21149 -1.42679
LeftLeg  9.1423 17.2216 0.0897
LeftFoot  -1.70396 -0.200655 2.50189
LeftToes  9.86798e-010 -1.28139e-010 1.4132e-011
876
root  -63.0177 40.3579 14.9082 -177.615 -37.1906 174.575
RightUpLeg  -1.98571 -11.1481 -18.0146
RightLeg  21.5435 0.156025 -0.14676
RightFoot  -6.77351 -0.205864 4.00536
RightToes  -4.65661e-009 0 -3.6325e-017
Spine  7.10813 -0.0801571 -1.4745
Spine1  3.71654 0.708462 -5.32123
HEad  -19.3257 -9.02829 3.78065
LeftShoulder1  -0.494696 4.77563 -32.7509
LeftArm  -3.18683 12.7277 -37.4195
LeftForeArm  27.8011 -12.9773 -6.74689
LeftHand  -0.0471441 7.56266 -0.288374
RightShoulder  -0.729257 -5.59587 28.2217
RightArm  9.41419 -12.1215 44.5763
RightForeArm  19.4959 9.17813 5.10222
RightHand  0.0465752 2.80279 0.441178
LeftUpLeg  -6.29849 7.45461 -1.00046
LeftLeg  8.69617 20.1706 0.153638
LeftFoot  -0.723772 -0.230599 2.52503
LeftToes  9.86798e-010 -1.28139e-010 1.4132e-011
